<svg width="437" height="439" viewBox="0 0 437 439" fill="none" xmlns="http://www.w3.org/2000/svg">
<path d="M103.453 0.43837C72.1208 8.37419 63.4142 16.8428 57.9415 36.5131L75.989 378.438H409.478C430.216 367.369 436.579 350.878 436.942 300.015C426.647 197.948 414.083 139.767 395.354 36.5131C385.91 22.1987 383.857 12.6409 346.704 11.4177L103.453 0.43837Z" fill="#044221"/>
<path d="M0.418709 343.045L37.9387 60.8817C46.9175 39.5961 54.9182 29.8427 81.4618 18.8574C165.345 10.9876 233.29 9.30814 347.103 5.34959C376.436 14.1608 394.029 18.8777 408.636 60.8817C412.119 174.695 415.786 255.924 415.389 330.288C414.191 363.328 406.837 376.477 380.871 389.572C223.516 418.441 137.406 434.005 63.4522 438.35C18.8558 424.464 0.745907 405.311 0.418709 343.045Z" fill="white"/>
<path d="M3.08416 343.045L40.6041 60.8817C49.5829 39.5961 57.5836 29.8427 84.1272 18.8574C168.01 10.9876 235.955 9.30814 349.768 5.34959C379.101 14.1608 396.694 18.8777 411.301 60.8817C414.784 174.695 418.451 255.924 418.054 330.288C416.856 363.328 409.502 376.477 383.536 389.572C226.181 418.441 140.071 434.005 66.1176 438.35C21.5212 424.464 3.41136 405.311 3.08416 343.045Z" fill="white"/>
</svg>
