<svg width="316" height="366" viewBox="0 0 316 366" fill="none" xmlns="http://www.w3.org/2000/svg">
<path d="M303.49 57.957C310.43 135.544 313.85 177.859 315.513 242.178C313.126 267.163 308.585 277.959 290.533 287.252C217.895 318.502 167.214 342.558 107.759 365.155C82.7042 367.776 72.9602 362.417 63.1383 348.88C42.9408 299.269 33.1507 243.36 14.0804 173.106C9.20366 145.693 13.2193 133.786 33.523 119.2C109.141 75.3204 219.434 14.4588 219.434 14.4588C219.434 14.4588 240.269 0.906714 253.746 1.95771C269.716 4.79181 277.08 9.26021 286.736 18.998C297.912 30.5158 301.551 39.0575 303.49 57.957Z" fill="#EA4142"/>
<path d="M302.454 63.2542C299.415 141.091 297.395 183.496 290.82 247.499C285.258 271.974 279.374 282.101 260.281 289.009C184.243 310.713 130.902 328.091 69.0456 342.899C43.8609 342.295 34.8822 335.734 26.8721 321.052C13.1848 269.266 10.6249 212.564 0.695459 140.448C-0.635504 112.636 4.86984 101.34 26.8721 89.471C107.48 55.6218 224.651 9.36423 224.651 9.36423C224.651 9.36423 247.048 -1.41227 260.281 1.35355C275.756 6.20654 282.489 11.58 290.82 22.4726C300.431 35.3251 302.949 44.262 302.454 63.2542Z" fill="white"/>
</svg>
