<svg width="316" height="365" viewBox="0 0 316 365" fill="none" xmlns="http://www.w3.org/2000/svg">
<path d="M12.3987 56.957C5.45874 134.544 2.03894 176.859 0.375641 241.178C2.76244 266.163 7.30304 276.959 25.3556 286.252C97.993 317.502 148.672 341.558 208.127 364.155C233.181 366.776 242.925 361.417 252.747 347.88C272.944 298.269 282.734 242.36 301.804 172.106C306.681 144.693 302.666 132.786 282.362 118.2C206.745 74.3204 96.453 13.4588 96.453 13.4588C96.453 13.4588 75.6185 -0.0932862 62.1414 0.957714C46.1723 3.79181 38.8079 8.26021 29.1523 17.998C17.9764 29.5158 14.3369 38.0575 12.3987 56.957Z" fill="#EA4142"/>
<path d="M13.4345 63.2542C16.4733 141.091 18.4929 183.496 25.0684 247.499C30.6307 271.974 36.5146 282.101 55.6074 289.009C131.645 310.713 184.985 328.091 246.84 342.899C272.025 342.295 281.003 335.734 289.013 321.052C302.701 269.266 305.26 212.564 315.19 140.448C316.521 112.636 311.015 101.34 289.013 89.471C208.406 55.6218 91.2363 9.36423 91.2363 9.36423C91.2363 9.36423 68.8395 -1.41227 55.6074 1.35355C40.1319 6.20654 33.3994 11.58 25.0684 22.4726C15.4572 35.3251 12.9399 44.262 13.4345 63.2542Z" fill="white"/>
</svg>
